HIERARCHY
ROOT ui
{
	 OFFSET 0 0 0
	 CHANNELS 3 XPosition YPosition Z Position
	 EndSite
	 {
	 OFFSET 0 -1 0
	 }
}
ROOT li
{
	 OFFSET 0 0 0
	 CHANNELS 3 XPosition YPosition Z Position
	 EndSite
	 {
	 OFFSET 0 -1 0
	 }
}
ROOT ul
{
	 OFFSET 0 0 0
	 CHANNELS 3 XPosition YPosition Z Position
	 EndSite
	 {
	 OFFSET 0 -1 0
	 }
}
ROOT ll
{
	 OFFSET 0 0 0
	 CHANNELS 3 XPosition YPosition Z Position
	 EndSite
	 {
	 OFFSET 0 -1 0
	 }
}
ROOT tt
{
	 OFFSET 0 0 0
	 CHANNELS 3 XPosition YPosition Z Position
	 EndSite
	 {
	 OFFSET 0 -1 0
	 }
}
ROOT tb
{
	 OFFSET 0 0 0
	 CHANNELS 3 XPosition YPosition Z Position
	 EndSite
	 {
	 OFFSET 0 -1 0
	 }
}
ROOT td
{
	 OFFSET 0 0 0
	 CHANNELS 3 XPosition YPosition Z Position
	 EndSite
	 {
	 OFFSET 0 -1 0
	 }
}
ROOT v
{
	 OFFSET 0 0 0
	 CHANNELS 3 XPosition YPosition Z Position
	 EndSite
	 {
	 OFFSET 0 -1 0
	 }
}
ROOT bn
{
	 OFFSET 0 0 0
	 CHANNELS 3 XPosition YPosition Z Position
	 EndSite
	 {
	 OFFSET 0 -1 0
	 }
}
MOTION
Frames: 32
Frame Time: 0.002
0.005493879795074463	-8.565100282430649E-5	0		0.385210205078125	-2.317959716796875	0		-1.106567138671875	0.0076767439842224125	0		-0.8452568969726563	-2.38089404296875	0		1.4572091064453125	-0.38656695556640625	0		3.21649609375	0.22412409973144531	0		4.6298359375	0.1254488525390625	0		5.51098388671875	0.022186697006225584	0		-0.13092787170410156	5.90771484375	0		
0.010280689239501954	-0.004073696136474609	0		0.38706661987304686	-2.314901611328125	0		-1.1085240478515626	0.016856090545654297	0		-0.8674761352539062	-2.381328369140625	0		1.463199951171875	-0.379619384765625	0		3.215957275390625	0.20314288330078126	0		4.64483984375	0.13212672424316407	0		5.5150068359375	0.030054031372070314	0		-0.11667508697509765	5.9185517578125	0		
0.014228885650634765	-0.001042382001876831	0		0.404985595703125	-2.310156005859375	0		-1.034667236328125	0.014546200752258301	0		-0.841560546875	-2.376704345703125	0		1.4533167724609375	-0.36735641479492187	0		3.221126953125	0.2170612030029297	0		4.63575537109375	0.1332816467285156	0		5.52973779296875	0.021714906692504882	0		-0.13082962036132811	5.90794287109375	0		
0.009242020606994628	0.004165903091430664	0		0.40483621215820315	-2.310055908203125	0		-1.1087188720703125	0.017140094757080077	0		-0.8905254516601563	-2.366608642578125	0		1.456846435546875	-0.38635980224609373	0		3.225908447265625	0.20998736572265625	0		4.6405146484375	0.12516921997070313	0		5.52965234375	0.021674692153930666	0		-0.13173388671875	5.9090771484375	0		
0.010019033432006837	-0.003740921974182129	0		0.4026709899902344	-2.311915283203125	0		-1.0388958740234375	0.010904208183288574	0		-0.845917724609375	-2.380356689453125	0		1.4460091552734375	-0.37407244873046874	0		3.210851318359375	0.21030921936035157	0		4.64045263671875	0.12515866088867186	0		5.51958935546875	0.021837533950805663	0		-0.13164385986328125	5.90919189453125	0		
0.014026524543762207	-7.09384024143219E-4	0		0.3595506896972656	-2.311966552734375	0		-1.09703369140625	0.00718540096282959	0		-0.8700828247070312	-2.382750732421875	0		1.4597689208984375	-0.38327175903320315	0		3.220528076171875	0.196145263671875	0		4.62254638671875	0.13250637817382813	0		5.5253017578125	0.009693891525268554	0		-0.12958567810058594	5.907267578125	0		
0.013981735229492188	-5.992519855499268E-4	0		0.4153803405761719	-2.315968994140625	0		-1.08711962890625	0.005125294208526612	0		-0.866106689453125	-2.378698974609375	0		1.462793212890625	-0.37925628662109373	0		3.233978759765625	0.2209171142578125	0		4.649341796875	0.12397481536865235	0		5.53363037109375	0.028510257720947264	0		-0.11529414367675782	5.91710302734375	0		
0.01698963165283203	0.0024502029418945314	0		0.39038037109375	-2.3103759765625	0		-1.1048704833984375	0.0206123161315918	0		-0.8682507934570313	-2.38052978515625	0		1.4529727783203126	-0.36698489379882815	0		3.21072021484375	0.2104093780517578	0		4.63547412109375	0.13325311279296875	0		5.52360205078125	0.029690929412841797	0		-0.13136477661132812	5.90953271484375	0		
0.013858604431152343	-3.816210031509399E-4	0		0.40427499389648436	-2.309552978515625	0		-1.039113525390625	0.011441431999206542	0		-0.8443201293945313	-2.37787744140625	0		1.4595748291015624	-0.38304302978515625	0		3.21065234375	0.2104484100341797	0		4.64024560546875	0.12516394805908204	0		5.52937109375	0.021562746047973633	0		-0.14454374694824218	5.89790380859375	0		
-0.0632186279296875	0.002249377965927124	0		0.375140869140625	-2.307880126953125	0		-1.09731298828125	0.007719175815582275	0		-0.8444811401367187	-2.377752685546875	0		1.473293701171875	-0.3912412414550781	0		3.215405029296875	0.20339213562011718	0		4.64013623046875	0.1251758804321289	0		5.5102626953125	0.021932477951049804	0		-0.130319580078125	5.90873486328125	0		
0.003381608009338379	-0.009969061851501464	0		0.41070233154296876	-2.31949267578125	0		-1.109281005859375	0.018081939697265625	0		-0.8728292236328125	-2.384074462890625	0		1.4592786865234375	-0.3828883666992188	0		3.215656494140625	0.22443125915527343	0		4.6399697265625	0.12519145965576173	0		5.5100947265625	0.02193116569519043	0		-0.11615838623046874	5.9195634765625	0		
-0.06362382125854492	0.0024613540172576903	0		0.36061184692382814	-2.309406494140625	0		-1.0977178955078124	0.007970061779022217	0		-0.8690306396484375	-2.38003466796875	0		1.45903515625	-0.38281100463867185	0		3.215007568359375	0.2034807586669922	0		4.64387353515625	0.13213018798828124	0		5.51401611328125	0.029853845596313478	0		-0.11628714752197265	5.91966943359375	0		
0.008133033752441406	0.005135282039642334	0		0.40533468627929686	-2.306203857421875	0		-1.10392578125	0.013209559440612794	0		-0.87921875	-2.371720458984375	0		1.45872021484375	-0.3827330932617187	0		3.239836669921875	0.21003121948242187	0		4.63942919921875	0.12523471069335937	0		5.518548828125	0.02176513671875	0		-0.13071044921875	5.90905419921875	0		
0.012654664039611817	1.3889600336551667E-4	0		0.37592575073242185	-2.3055322265625	0		-1.1102032470703125	0.018447315216064453	0		-0.845740478515625	-2.37727880859375	0		1.4644937744140625	-0.37477487182617186	0		3.21432763671875	0.20357998657226561	0		4.634212890625	0.13336106872558592	0		5.5181708984375	0.021779836654663084	0		-0.14521078491210937	5.8984384765625	0		
0.003232846021652222	0.0014189000129699706	0		0.4003441162109375	-2.31093212890625	0		-1.11472509765625	0.014645391464233399	0		-0.8950302734375	-2.367192626953125	0		1.4409896240234374	-0.37723709106445313	0		3.20902734375	0.2107322998046875	0		4.638611328125	0.1252967300415039	0		5.52352783203125	0.011683032035827637	0		-0.1171358871459961	5.9199814453125	0		
-0.06931678771972656	-4.78300005197525E-5	0		0.35679733276367187	-2.310981689453125	0		-1.0993516845703124	0.00844379711151123	0		-0.8728494873046875	-2.381534912109375	0		1.4543184814453125	-0.3854329833984375	0		3.218245361328125	0.19659332275390626	0		4.63195068359375	0.11745555114746094	0		5.5230234375	0.011708984375	0		-0.11660023498535156	5.91806396484375	0		
0.011149543762207031	4.3914300203323363E-4	0		0.39608413696289063	-2.31768212890625	0		-1.09585009765625	0.011475900650024413	0		-0.8693573608398437	-2.377505615234375	0		1.4598944091796875	-0.3784728698730469	0		3.246182373046875	0.22109027099609374	0		4.64169140625	0.13229539489746095	0		5.5208251953125	0.029776140213012694	0		-0.11610501861572266	5.91714453125	0		
0.01055169677734375	5.353990197181701E-4	0		0.4047374572753906	-2.303772216796875	0		-1.0265413818359375	0.006191187858581543	0		-0.8459267578125	-2.374878173828125	0		1.4592923583984374	-0.3783927612304688	0		3.212235107421875	0.2038112335205078	0		4.63695654296875	0.1254210433959961	0		5.53086669921875	0.011595413208007813	0		-0.13279299926757812	5.90956201171875	0		
0.009928644180297852	6.283800005912781E-4	0		0.3999922180175781	-2.3086025390625	0		-1.1129281005859375	0.01900614547729492	0		-0.88454638671875	-2.37301953125	0		1.452527099609375	-0.3851935424804688	0		3.206754638671875	0.21096998596191407	0		4.6280771484375	0.11262908935546875	0		5.5254443359375	0.021730051040649415	0		-0.1333561248779297	5.90965673828125	0		
0.005235280990600586	-0.002202531099319458	0		0.3972970581054687	-2.31047705078125	0		-1.0436759033203125	0.012710783958435059	0		-0.8533485717773438	-2.38055908203125	0		1.458027587890625	-0.37823910522460935	0		3.210981689453125	0.20393093872070311	0		4.6226044921875	0.12077330017089843	0		5.52481005859375	0.021767892837524415	0		-0.14815243530273436	5.89902783203125	0		
0.004601343154907227	-0.002118856906890869	0		0.38058721923828126	-2.313076904296875	0		-1.1023978271484376	0.008960939407348633	0		-0.8780574340820313	-2.382989013671875	0		1.454311279296875	-0.38210693359375	0		3.215627685546875	0.2178853454589844	0		4.639908203125	0.11746004486083984	0		5.51993798828125	0.009887651443481445	0		-0.12030392456054688	5.92055029296875	0		
0.008036945343017578	8.786969780921936E-4	0		0.4089208679199219	-2.314580322265625	0		-1.103021240234375	0.009047114372253418	0		-0.8766590576171875	-2.38094482421875	0		1.45368505859375	-0.38203973388671875	0		3.2097275390625	0.20404200744628906	0		4.6344462890625	0.1256017379760742	0		5.52769189453125	0.028761260986328124	0		-0.1208833999633789	5.92062890625	0		
0.007432498931884766	9.50560986995697E-4	0		0.3813667297363281	-2.31097265625	0		-1.109524658203125	0.014244895935058594	0		-0.8772788696289062	-2.3808671875	0		1.47307421875	-0.3823763427734375	0		3.21926220703125	0.21089224243164062	0		4.6290029296875	0.133741943359375	0		5.517109375	0.029996891021728516	0		-0.13566639709472655	5.9099833984375	0		
0.006853847026824951	0.0010160260200500488	0		0.3968322143554687	-2.308229248046875	0		-1.0302388916015626	0.0067205939292907715	0		-0.8636536865234375	-2.37007861328125	0		1.4494381103515626	-0.3848591003417969	0		3.2235439453125	0.2038418273925781	0		4.6250068359375	0.11284635925292968	0		5.5223701171875	0.021914215087890626	0		-0.13621292114257813	5.9100498046875	0		
-8.32269012928009E-4	-0.005784162998199463	0		0.3673001403808594	-2.306593505859375	0		-1.12062890625	0.015579431533813477	0		-0.8564130249023437	-2.380173828125	0		1.4550272216796876	-0.377927978515625	0		3.203140869140625	0.21128437805175782	0		4.63271728515625	0.12572250366210938	0		5.502826171875	0.022328149795532225	0		-0.12251800537109375	5.9208271484375	0		
0.0017340680360794067	-0.0017932239770889283	0		0.40255291748046873	-2.318259765625	0		-1.105264892578125	0.009316360473632813	0		-0.8830283203125	-2.384599365234375	0		1.4452952880859375	-0.3886990966796875	0		3.212346923828125	0.19712876892089845	0		4.62120703125	0.1259788818359375	0		5.52193017578125	0.002966418981552124	0		-0.1210721435546875	5.91783984375	0		
0.005318318843841553	0.0011712590456008911	0		0.35432254028320315	-2.30525927734375	0		-1.0998607177734374	0.0032449610233306883	0		-0.877389404296875	-2.378673583984375	0		1.4540374755859375	-0.37783901977539064	0		3.21039208984375	0.22320191955566407	0		4.62487158203125	0.13293310546875	0		5.520794921875	0.02001666450500488	0		-0.12153488159179687	5.91788525390625	0		
0.00794340991973877	0.004149777889251709	0		0.40777557373046874	-2.311298095703125	0		-1.1179718017578124	0.019641334533691407	0		-0.8778258056640625	-2.378633544921875	0		1.4456444091796874	-0.37564190673828124	0		3.206579345703125	0.2043017578125	0		4.62919677734375	0.12087046813964844	0		5.520400390625	0.022050291061401366	0		-0.12390341949462891	5.92096337890625	0		
0.0044918951988220214	0.0012439589500427247	0		0.3944461669921875	-2.30800537109375	0		-1.122443115234375	0.0157555570602417	0		-0.8562021484375	-2.378039794921875	0		1.4532108154296874	-0.3777674560546875	0		3.201327880859375	0.21143426513671876	0		4.626064453125	0.13396199035644532	0		5.51001025390625	0.02228433036804199	0		-0.13851321411132814	5.91027880859375	0		
8.263599872589112E-5	-0.0016472059488296508	0		0.39205877685546875	-2.309936279296875	0		-1.042928955078125	0.008186186790466309	0		-0.8945223388671875	-2.37625341796875	0		1.432885009765625	-0.37633843994140626	0		3.220833740234375	0.2040677490234375	0		4.62229541015625	0.11305905151367188	0		5.519658203125	0.022118438720703126	0		-0.13886924743652343	5.91030712890625	0		
-2.2643199563026427E-4	-0.001624384045600891	0		0.37363751220703123	-2.31555224609375	0		-1.123102294921875	0.015803640365600585	0		-0.8480563354492188	-2.388168701171875	0		1.443334716796875	-0.3885303955078125	0		3.19094970703125	0.22569113159179688	0		4.61924658203125	0.12614727020263672	0		5.50931103515625	0.020351009368896486	0		-0.12497175598144532	5.9210478515625	0		
0.0035632290840148925	0.0013123329877853395	0		0.40236782836914065	-2.316113037109375	0		-1.1074947509765625	0.009499850273132325	0		-0.8811737060546875	-2.380495849609375	0		1.4492047119140625	-0.38163095092773436	0		3.20525732421875	0.2044206085205078	0		4.62513525390625	0.13405409240722657	0		5.52321875	0.029100013732910157	0		-0.12525535583496095	5.92106494140625	0		
